# xmcd
#
# Track frame offsets:
#	150
#	14745
#	28784
#	49052
#	63851
#	80069
#	93237
#	109158
#	126955
#	148447
#	164256
#	184666
#
# Disc length: 3021 seconds
#
# Revision: 0
# Processed by: cddbd v1.5.2PL0 Copyright (c) Steve Scherf et al.
# Submitted via: SynApp - FreeCDDB Version: 3.2
#
DISCID=aa0bcb0c
DTITLE=Amy MacDonald - A Curious Thing
DYEAR=2000
DGENRE=Rock/Pop
TTITLE0=Amy MacDonald
TTITLE1=Amy MacDonald
TTITLE2=Amy MacDonald
TTITLE3=Amy MacDonald
TTITLE4=Amy MacDonald
TTITLE5=Amy MacDonald
TTITLE6=Amy MacDonald
TTITLE7=Amy MacDonald
TTITLE8=Amy MacDonald
TTITLE9=Amy MacDonald
TTITLE10=Amy MacDonald
TTITLE11=Amy MacDonald
EXTD=
EXTT0=
EXTT1=
EXTT2=
EXTT3=
EXTT4=
EXTT5=
EXTT6=
EXTT7=
EXTT8=
EXTT9=
EXTT10=
EXTT11=
PLAYORDER=
